<svg xmlns="http://www.w3.org/2000/svg" xmlns:xlink="http://www.w3.org/1999/xlink" version="1.1" x="0px" y="0px" viewBox="0 0 100 125" style="enable-background:new 0 0 100 100;" xml:space="preserve"><g><g><g><path d="M23.16,95.3c-1.1,0-2-0.9-2-2V6.7c0-1.1,0.9-2,2-2s2,0.9,2,2V93.3C25.16,94.4,24.27,95.3,23.16,95.3z"/></g><g><path d="M73.91,49.29H23.16c-1.1,0-2-0.9-2-2s0.9-2,2-2h50.74c0.45,0,0.69-0.27,0.79-0.44c0.1-0.16,0.24-0.5,0.04-0.9l-4.86-9.72     c-1-1.99-1-4.37,0-6.36l4.86-9.72c0.2-0.4,0.06-0.74-0.04-0.9c-0.1-0.16-0.34-0.44-0.79-0.44H23.16c-1.1,0-2-0.9-2-2s0.9-2,2-2     h50.74c1.72,0,3.29,0.87,4.19,2.34c0.9,1.46,0.98,3.25,0.21,4.79l-4.86,9.72c-0.44,0.87-0.44,1.91,0,2.78l4.86,9.72     c0.77,1.54,0.69,3.33-0.22,4.79C77.19,48.42,75.63,49.29,73.91,49.29z"/></g></g></g><text x="0" y="115" fill="#000000" font-size="5px" font-weight="bold" font-family="'Helvetica Neue', Helvetica, Arial-Unicode, Arial, Sans-serif">Created by Line Icons Pro</text><text x="0" y="120" fill="#000000" font-size="5px" font-weight="bold" font-family="'Helvetica Neue', Helvetica, Arial-Unicode, Arial, Sans-serif">from the Noun Project</text></svg>